PathFileType	4	(X/Y/Z)	D:\TRACE\spotREDO_2-26-24\spot_Both_Motion_1_8-v60.trc
DataRate	CameraRate	NumFrames	NumMarkers	Units	OrigDataRate	OrigDataStartFrame	OrigNumFrames
100.00	100.00	      24	9	mm	100.00	876	      7000
Frame#	Time	front left toe			Front right toe			aft left toe			aft right toe			Arm			FL body			FR body			AL Body			AR Body			
		X1	Y1	Z1	X2	Y2	Z2	X3	Y3	Z3	X4	Y4	Z4	X5	Y5	Z5	X6	Y6	Z6	X7	Y7	Z7	X8	Y8	Z8	X9	Y9	Z9	

876	8.750	-250.41277	38.43655	-466.70868	119.41909	42.40017	-443.82932	-341.07050	12.36335	140.28098	92.22585	18.68398	154.75183	-77.61301	727.46149	-792.88800	-165.85529	606.62866	-532.10358	-10.28583	610.25342	-523.12494	-219.99568	552.13452	348.54599	-79.67406	556.28802	358.39459	
877	8.760	-250.61142	38.17651	-466.75082	119.54336	42.66496	-443.90408	-341.21820	12.31521	140.31281	92.12570	18.95497	154.59924	-77.46021	727.79468	-792.72778	-167.95528	607.23914	-532.46600	-12.50172	611.15839	-523.82617	-222.19875	552.58728	348.28717	-81.40997	556.57593	358.10718	
878	8.770	-250.71219	38.24507	-466.77881	119.40079	42.84112	-444.12689	-341.10602	12.12606	140.25536	92.15900	19.12428	154.69652	-77.24870	727.89301	-792.63477	-169.93614	608.14191	-532.95386	-14.30695	611.92389	-524.33917	-224.41563	552.93958	347.76245	-83.43990	557.04596	357.63913	
879	8.780	-250.72937	38.16212	-466.78278	119.07262	42.87288	-444.34012	-341.30173	12.19819	140.32506	92.08383	19.32862	154.52448	-77.45171	727.87115	-792.88403	-171.54510	608.96539	-533.45007	-15.78265	612.64520	-524.50146	-226.30585	553.60736	347.14008	-85.30791	557.25598	357.15753	
880	8.790	-250.71335	37.96457	-466.82758	118.98189	42.90535	-444.35599	-341.49072	11.84301	140.16492	91.92262	19.50661	154.39842	-77.83103	727.89404	-792.86047	-172.83875	609.04755	-533.59833	-17.38128	613.06573	-525.01495	-227.92084	553.75763	346.64905	-87.27725	557.63226	356.66785	
881	8.800	-250.63310	37.88099	-466.88388	119.12160	42.91035	-444.34415	-341.44003	11.70394	140.18864	91.71474	19.72144	154.35457	-78.53404	727.95404	-792.90338	-173.99199	609.77942	-534.54272	-18.55774	613.55707	-525.45801	-229.91560	554.23853	346.06421	-88.87003	558.07886	356.20660	
882	8.810	-250.51689	37.72944	-466.94446	119.20991	43.02185	-444.27765	-341.21957	11.54169	140.15395	91.75520	19.80058	154.35242	-79.46046	727.88593	-793.16412	-174.86790	609.98212	-534.75616	-19.41231	614.05829	-525.74615	-231.19957	554.55499	345.77707	-90.27653	558.62592	355.86987	
883	8.820	-250.32341	37.75405	-467.05466	119.56416	43.18330	-444.19696	-340.91229	11.47747	140.04942	91.90359	19.79532	154.32347	-80.59398	727.91418	-793.25049	-175.84879	610.58942	-535.32092	-20.14376	614.46613	-526.04041	-232.68332	555.00732	345.27628	-91.75693	559.07202	355.48743	
884	8.830	-249.97839	37.78334	-467.13684	120.18792	43.44846	-444.04114	-340.52151	11.36378	139.97807	92.34200	19.90825	154.38374	-81.49478	728.07098	-793.41943	-176.66039	610.89819	-535.78070	-21.10524	614.91400	-526.41809	-233.99918	555.40881	344.77274	-92.78878	559.53833	355.31635	
885	8.840	-249.75145	37.70038	-467.12091	120.23930	43.40905	-444.19092	-340.27216	11.34807	140.11061	92.67827	19.97248	154.36971	-82.40550	728.21722	-793.56586	-177.33270	610.95044	-535.96948	-21.96488	615.34015	-526.96619	-234.76773	555.25012	344.33569	-94.00952	559.84625	354.78445	
886	8.850	-249.50610	37.42778	-467.24973	120.37848	43.52015	-444.22498	-340.05515	11.19747	139.93236	92.89819	20.00996	154.30026	-82.75244	728.29889	-793.65607	-178.01045	611.16766	-536.43701	-22.44945	615.55261	-527.20947	-235.52905	555.38483	343.93198	-94.87000	560.08636	354.21265	
887	8.860	-249.16713	37.06331	-467.36429	120.47884	43.48482	-444.34644	-339.91046	11.26275	139.82980	93.16724	20.10267	154.26300	-83.11942	728.37158	-793.67590	-178.83521	611.34241	-536.94775	-23.18179	615.79266	-527.52405	-235.95172	555.43329	343.60928	-95.33385	560.26758	354.01855	
888	8.870	-248.93544	36.94547	-467.39050	120.54105	43.41356	-444.48224	-339.79547	11.38529	139.74252	93.52859	20.26506	154.23140	-83.66106	728.45648	-793.86865	-179.19859	611.34338	-537.07794	-23.79003	616.09167	-527.81757	-236.58081	555.75006	343.38733	-95.66764	560.51324	353.80646	
889	8.880	-248.67307	36.80647	-467.37631	120.64258	43.39022	-444.59912	-339.52792	11.56147	139.76912	93.75471	20.25874	154.19969	-83.95628	728.67700	-794.12921	-179.66452	611.51758	-537.39563	-24.28677	616.32605	-528.19257	-236.89453	555.85107	343.09662	-96.24380	560.76031	353.48795	
890	8.890	-248.58391	36.76428	-467.48221	120.80576	43.24734	-444.79031	-339.21381	11.71348	139.62787	94.03726	20.03882	153.88148	-84.13744	729.02448	-794.08704	-180.06856	611.48584	-537.76190	-24.64411	616.34680	-528.51300	-237.36919	555.98724	342.72961	-96.60635	560.93170	353.11139	
891	8.900	-248.41699	36.78677	-467.48798	121.30683	43.15317	-444.95547	-338.59094	11.73941	139.55057	94.43993	20.00287	153.76898	-84.67321	729.59473	-793.77448	-180.07645	610.85138	-538.14569	-24.52316	615.77039	-528.70343	-237.82959	556.42572	342.42575	-96.84577	561.30981	352.87555	
892	8.910	-247.87044	36.40184	-467.63181	122.31061	43.20634	-444.43829	-338.37195	11.96115	139.46956	94.97081	20.44571	153.72244	-86.00242	730.37158	-793.11908	-179.63361	609.91986	-538.50293	-24.12502	614.73547	-528.78479	-238.12543	557.02136	342.12686	-97.61826	562.15472	352.66882	
893	8.920	-247.35535	36.28730	-467.81897	122.86280	42.64233	-444.32449	-338.04855	11.87279	139.34401	95.11861	20.57937	153.88080	-87.90491	731.80615	-792.12073	-178.79900	609.09509	-538.93274	-23.49715	613.99841	-529.09912	-238.88753	557.66510	341.78372	-98.00280	562.71326	352.70114	
894	8.930	-247.02422	36.44536	-467.94434	123.20424	42.10992	-444.57718	-337.70517	11.98087	139.19022	95.27632	20.66535	153.89749	-91.34046	733.92584	-790.37811	-177.65399	608.44843	-539.10645	-22.32825	613.18188	-529.06891	-239.83136	558.29425	341.27225	-98.85043	563.17297	352.39301	
895	8.940	-246.35736	36.46785	-468.10947	123.91633	42.10857	-444.27432	-337.47415	12.04250	139.05090	95.34647	20.55265	153.85027	-95.74075	736.43292	-787.94232	-176.18430	607.68994	-539.64642	-20.85320	612.41473	-529.15356	-240.54207	558.68872	340.87048	-99.71742	563.57056	352.25980	
896	8.950	-245.77602	36.44337	-468.33685	124.50790	41.98621	-443.99637	-337.34381	11.81496	138.93892	95.54632	20.55238	153.89175	-101.61601	740.07068	-785.54596	-174.04973	606.87158	-540.24890	-19.20290	611.39880	-528.99255	-241.13596	558.83728	340.24637	-100.55968	563.79358	352.07333	
897	8.960	-245.15359	36.63777	-468.50171	124.94562	41.77016	-443.87390	-337.15201	11.68706	138.80867	95.77022	20.50016	154.01932	-108.59071	744.17621	-782.28918	-172.56572	606.14459	-540.38562	-17.85266	610.60815	-529.04773	-241.63690	558.98572	339.80652	-101.78917	564.47235	352.13150	
898	8.970	-244.73441	36.69258	-468.48080	125.77833	41.35941	-443.80832	-336.53568	11.48873	138.68903	96.34354	20.38263	154.00928	-115.78463	748.26257	-779.02704	-171.29620	605.51532	-540.53027	-17.19740	610.14337	-528.79700	-241.41252	558.63794	339.41818	-101.11316	564.11829	352.16025	
899	8.980	-243.77274	36.27345	-468.49973	126.10477	41.28773	-443.77661	-336.26279	11.41549	138.80081	96.85246	20.21592	153.77640	-123.17736	753.06720	-775.51758	-170.58109	605.08521	-540.68420	-15.81088	609.69647	-529.30182	-241.08376	558.40094	339.54410	-100.69105	563.81073	352.02325	
